<?xml version="1.0" encoding="UTF-8"?>
<svg id="_图层_2" data-name="图层 2" xmlns="http://www.w3.org/2000/svg" viewBox="0 0 160.84 114.25">
  <defs>
    <style>
      .cls-1 {
        fill: #0b0a09;
      }

      .cls-2 {
        fill: #bc1e22;
      }
    </style>
  </defs>
  <g id="_图层_1-2" data-name="图层 1">
    <g>
      <path class="cls-2" d="M160.84,51.03c-.9.7-14.36,12.38-14.99,12.18l-53.53.09c-3.94,3.69-8.23,12.55-12.27,16.2-3.7-5.56-7.51-11.16-11.91-16.2l-53.15-.1-1.3-.55L0,51.58l59.11-2.45L80.6,0l21.07,49,59.17,2.03Z"/>
      <g>
        <path class="cls-1" d="M123.87,90.96c5.12,8.04,11.81,15.43,17.38,23.29h-9.06c-1.05,0-11.05-14.97-12.94-16.63-1.86,1.69-11.89,16.63-12.94,16.63h-8.69l16.87-22.55c.2-.74-3.05-4.89-3.78-5.89-3.01-3.77-6.56-10.47-10.31-12.97l-16.46,22.74v18.67h-7.76v-19.04c-5.42-8.63-13.05-16.47-17.75-25.33,3.01,1.03,5.96-.74,8.77.47,4.04,6.22,9.13,11.88,12.68,18.38l.76-.24,13.17-18.26,14.53.19c3.55,4.98,7.42,9.73,11.09,14.6,2.17,1,4.09,3.56,4.44,5.92Z"/>
        <polygon class="cls-1" points="28.1 70.25 28.1 88 48.81 88.37 48.81 70.25 56.58 70.25 56.58 114.25 48.81 114.25 48.81 95.03 28.1 95.03 28.1 114.25 20.34 114.25 20.34 70.25 28.1 70.25"/>
        <path class="cls-2" d="M119.43,85.04l11.25-14.45c.71-.46,9.09-1.02,9.45-.71l-16.27,21.07c-1.44-1.91-2.97-3.97-4.44-5.92Z"/>
      </g>
    </g>
  </g>
</svg>